<?xml version="1.0"?>
<svg xmlns="http://www.w3.org/2000/svg" xmlns:xlink="http://www.w3.org/1999/xlink" version="1.1" id="Layer_1" x="0px" y="0px" viewBox="0 0 512.004 512.004" style="enable-background:new 0 0 512.004 512.004;" xml:space="preserve" width="512px" height="512px" class=""><g><g>
	<g>
		<g>
			<path d="M315.735,119.47c4.719,0,8.533-3.823,8.533-8.533s-3.814-8.533-8.533-8.533h-17.067c-4.719,0-8.533,3.823-8.533,8.533     s3.814,8.533,8.533,8.533H315.735z" data-original="#000000" class="active-path" data-old_color="#000000" fill="#FF9B00"/>
			<path d="M187.735,213.337v51.2c0,4.71,3.823,8.533,8.533,8.533h119.467c4.719,0,8.533-3.823,8.533-8.533v-51.2     c0-37.641-30.626-68.267-68.267-68.267C218.362,145.07,187.735,175.696,187.735,213.337z M247.469,256.003h-42.667V221.87h42.667     V256.003z M247.469,204.803H205.57c3.618-21.393,20.506-38.281,41.899-41.899V204.803z M264.535,162.905     c21.393,3.618,38.281,20.506,41.899,41.899h-41.899V162.905z M264.535,221.87h42.667v34.133h-42.667V221.87z" data-original="#000000" class="active-path" data-old_color="#000000" fill="#FF9B00"/>
			<path d="M452.269,494.937h-358.4c-4.71,0-8.533,3.823-8.533,8.533s3.823,8.533,8.533,8.533h358.4     c4.719,0,8.533-3.823,8.533-8.533S456.988,494.937,452.269,494.937z" data-original="#000000" class="active-path" data-old_color="#000000" fill="#FF9B00"/>
			<path d="M76.802,85.337h8.533v42.667c0,4.71,3.823,8.533,8.533,8.533c4.71,0,8.533-3.823,8.533-8.533v-51.2     c0-4.71-3.823-8.533-8.533-8.533h-8.533V51.203h51.2V68.27h-8.533c-4.71,0-8.533,3.823-8.533,8.533V93.87     c0,4.71,3.823,8.533,8.533,8.533s8.533-3.823,8.533-8.533v-8.533h8.533c4.71,0,8.533-3.823,8.533-8.533V42.67     c0-4.71-3.823-8.533-8.533-8.533H76.802c-4.71,0-8.533,3.823-8.533,8.533v34.133C68.269,81.514,72.092,85.337,76.802,85.337z" data-original="#000000" class="active-path" data-old_color="#000000" fill="#FF9B00"/>
			<path d="M93.869,477.87h17.067c4.71,0,8.533-3.823,8.533-8.533c0-4.71-3.823-8.533-8.533-8.533H93.869     c-4.71,0-8.533,3.823-8.533,8.533C85.335,474.047,89.158,477.87,93.869,477.87z" data-original="#000000" class="active-path" data-old_color="#000000" fill="#FF9B00"/>
			<path d="M179.202,153.603h-17.067c-4.71,0-8.533,3.823-8.533,8.533c0,4.71,3.823,8.533,8.533,8.533h17.067     c4.71,0,8.533-3.823,8.533-8.533C187.735,157.426,183.913,153.603,179.202,153.603z" data-original="#000000" class="active-path" data-old_color="#000000" fill="#FF9B00"/>
			<path d="M59.735,494.937h-51.2c-4.71,0-8.533,3.823-8.533,8.533s3.823,8.533,8.533,8.533h51.2c4.71,0,8.533-3.823,8.533-8.533     S64.446,494.937,59.735,494.937z" data-original="#000000" class="active-path" data-old_color="#000000" fill="#FF9B00"/>
			<path d="M349.869,426.67h51.2c4.719,0,8.533-3.823,8.533-8.533s-3.814-8.533-8.533-8.533h-51.2c-4.719,0-8.533,3.823-8.533,8.533     S345.15,426.67,349.869,426.67z" data-original="#000000" class="active-path" data-old_color="#000000" fill="#FF9B00"/>
			<path d="M418.135,375.47c4.719,0,8.533-3.823,8.533-8.533s-3.814-8.533-8.533-8.533h-17.067c-4.719,0-8.533,3.823-8.533,8.533     s3.814,8.533,8.533,8.533H418.135z" data-original="#000000" class="active-path" data-old_color="#000000" fill="#FF9B00"/>
			<path d="M170.669,418.137c0-4.71-3.823-8.533-8.533-8.533h-17.067c-4.71,0-8.533,3.823-8.533,8.533s3.823,8.533,8.533,8.533     h17.067C166.846,426.67,170.669,422.847,170.669,418.137z" data-original="#000000" class="active-path" data-old_color="#000000" fill="#FF9B00"/>
			<path d="M102.402,213.337c0,4.71,3.823,8.533,8.533,8.533h51.2c4.71,0,8.533-3.823,8.533-8.533c0-4.71-3.823-8.533-8.533-8.533     h-51.2C106.225,204.803,102.402,208.626,102.402,213.337z" data-original="#000000" class="active-path" data-old_color="#000000" fill="#FF9B00"/>
			<path d="M503.469,494.937h-17.067c-4.719,0-8.533,3.823-8.533,8.533s3.814,8.533,8.533,8.533h17.067     c4.719,0,8.533-3.823,8.533-8.533S508.188,494.937,503.469,494.937z" data-original="#000000" class="active-path" data-old_color="#000000" fill="#FF9B00"/>
			<path d="M503.469,264.537c2.185,0,4.369-0.836,6.033-2.5c3.337-3.337,3.337-8.73,0-12.066l-51.191-51.191     c-0.009-0.009-0.009-0.009-0.017-0.009l-42.65-42.658l-0.017-0.017L262.035,2.503c-3.337-3.336-8.73-3.336-12.066,0     l-102.4,102.391v0.009L2.502,249.97c-3.336,3.337-3.336,8.73,0,12.066c3.337,3.337,8.73,3.337,12.066,0l36.634-36.634v243.934     c0,4.71,3.823,8.533,8.533,8.533s8.533-3.823,8.533-8.533V426.67h42.667c4.71,0,8.533-3.823,8.533-8.533     s-3.823-8.533-8.533-8.533H68.269V324.27h8.533c4.71,0,8.533-3.823,8.533-8.533s-3.823-8.533-8.533-8.533h-8.533V273.07h76.8     c4.71,0,8.533-3.823,8.533-8.533s-3.823-8.533-8.533-8.533h-76.8v-47.667l88.866-88.866h56.201c4.71,0,8.533-3.823,8.533-8.533     s-3.823-8.533-8.533-8.533h-39.134l81.801-81.801l133.001,133h-22.067c-4.719,0-8.533,3.823-8.533,8.533     c0,4.71,3.814,8.533,8.533,8.533h39.134l34.133,34.133h-39.134c-4.719,0-8.533,3.823-8.533,8.533c0,4.71,3.814,8.533,8.533,8.533     h42.667v34.133h-8.533c-4.719,0-8.533,3.823-8.533,8.533s3.814,8.533,8.533,8.533h8.533v34.133h-42.667     c-4.719,0-8.533,3.823-8.533,8.533s3.814,8.533,8.533,8.533h42.667v85.333h-8.533c-4.719,0-8.533,3.823-8.533,8.533     s3.814,8.533,8.533,8.533h8.533v34.133h-59.733c-4.719,0-8.533,3.823-8.533,8.533c0,4.71,3.814,8.533,8.533,8.533h68.267     c4.719,0,8.533-3.823,8.533-8.533V225.403l36.634,36.634C499.1,263.7,501.284,264.537,503.469,264.537z" data-original="#000000" class="active-path" data-old_color="#000000" fill="#FF9B00"/>
			<path d="M128.002,375.47h59.733v85.333h-25.6c-4.71,0-8.533,3.823-8.533,8.533c0,4.71,3.823,8.533,8.533,8.533h34.133     c4.71,0,8.533-3.823,8.533-8.533V324.27h102.4v68.267h-8.533c-4.719,0-8.533,3.823-8.533,8.533c0,4.71,3.814,8.533,8.533,8.533     h8.533v59.733c0,4.71,3.814,8.533,8.533,8.533s8.533-3.823,8.533-8.533V375.47h8.533c4.719,0,8.533-3.823,8.533-8.533     s-3.814-8.533-8.533-8.533h-8.533v-42.667c0-4.71-3.814-8.533-8.533-8.533H196.269c-4.71,0-8.533,3.823-8.533,8.533v42.667     h-59.733c-4.71,0-8.533,3.823-8.533,8.533S123.292,375.47,128.002,375.47z" data-original="#000000" class="active-path" data-old_color="#000000" fill="#FF9B00"/>
			<path d="M119.469,315.737c0,4.71,3.823,8.533,8.533,8.533h34.133c4.71,0,8.533-3.823,8.533-8.533s-3.823-8.533-8.533-8.533     h-34.133C123.292,307.203,119.469,311.026,119.469,315.737z" data-original="#000000" class="active-path" data-old_color="#000000" fill="#FF9B00"/>
			<path d="M349.869,324.27h17.067c4.719,0,8.533-3.823,8.533-8.533s-3.814-8.533-8.533-8.533h-17.067     c-4.719,0-8.533,3.823-8.533,8.533S345.15,324.27,349.869,324.27z" data-original="#000000" class="active-path" data-old_color="#000000" fill="#FF9B00"/>
			<path d="M358.402,264.537c0,4.71,3.814,8.533,8.533,8.533h34.133c4.719,0,8.533-3.823,8.533-8.533s-3.814-8.533-8.533-8.533     h-34.133C362.217,256.003,358.402,259.826,358.402,264.537z" data-original="#000000" class="active-path" data-old_color="#000000" fill="#FF9B00"/>
			<path d="M366.935,204.803h-17.067c-4.719,0-8.533,3.823-8.533,8.533c0,4.71,3.814,8.533,8.533,8.533h17.067     c4.719,0,8.533-3.823,8.533-8.533C375.469,208.626,371.654,204.803,366.935,204.803z" data-original="#000000" class="active-path" data-old_color="#000000" fill="#FF9B00"/>
		</g>
	</g>
</g></g> </svg>
