<?xml version="1.0"?>
<svg xmlns="http://www.w3.org/2000/svg" xmlns:xlink="http://www.w3.org/1999/xlink" version="1.1" id="Layer_1" x="0px" y="0px" viewBox="0 0 512.002 512.002" style="enable-background:new 0 0 512.002 512.002;" xml:space="preserve" width="512px" height="512px" class=""><g><g>
	<g>
		<path d="M503.983,406.18h-9.086V229.112l4.118,3.252c1.471,1.161,3.223,1.725,4.963,1.725c2.369,0,4.716-1.046,6.298-3.05    c2.743-3.475,2.151-8.516-1.324-11.26L346.481,91.513c-2.913-2.299-7.023-2.299-9.935,0l-62.806,49.582H8.017    c-4.427,0-8.017,3.589-8.017,8.017v68.409c0,4.427,3.589,8.017,8.017,8.017h9.086V406.18H8.017c-4.427,0-8.017,3.589-8.017,8.017    c0,4.427,3.589,8.017,8.017,8.017h495.967c4.427,0,8.017-3.589,8.017-8.017C512,409.769,508.411,406.18,503.983,406.18z     M16.033,209.504v-52.376H253.43l-66.343,52.376H16.033z M51.307,406.18H33.136v-52.376h18.171V406.18z M85.511,406.18H67.34    v-52.376h18.171V406.18z M119.716,406.18h-18.171v-52.376h18.171V406.18z M153.921,406.18h-18.171v-52.376h18.171V406.18z     M188.125,406.18h-18.171v-52.376h18.171V406.18z M188.125,337.771H33.136V225.537H171.05c-0.128,1.913,0.416,3.878,1.697,5.502    c2.744,3.475,7.784,4.068,11.26,1.324l4.118-3.252V337.771z M478.864,371.975h-9.086c-4.427,0-8.017,3.589-8.017,8.017    c0,4.427,3.589,8.017,8.017,8.017h9.086v18.171H204.159v-18.171h180.109c4.427,0,8.017-3.589,8.017-8.017    c0-4.427-3.589-8.017-8.017-8.017H204.159V225.537h43.29c4.427,0,8.017-3.589,8.017-8.017s-3.589-8.017-8.017-8.017h-34.486    l128.548-101.485L470.06,209.504H281.65c-4.427,0-8.017,3.589-8.017,8.017s3.589,8.017,8.017,8.017h197.214V371.975z" data-original="#000000" class="active-path" data-old_color="#773737" fill="#0F00FF"/>
	</g>
</g><g>
	<g>
		<path d="M435.573,371.975h-17.1c-4.427,0-8.017,3.589-8.017,8.017c0,4.427,3.589,8.017,8.017,8.017h17.1    c4.427,0,8.017-3.589,8.017-8.017C443.59,375.565,440,371.975,435.573,371.975z" data-original="#000000" class="active-path" data-old_color="#773737" fill="#0F00FF"/>
	</g>
</g><g>
	<g>
		<path d="M281.653,243.708h-51.307c-4.427,0-8.017,3.589-8.017,8.017v85.511c0,4.427,3.589,8.017,8.017,8.017h51.307    c4.427,0,8.017-3.589,8.017-8.017v-85.511C289.67,247.297,286.081,243.708,281.653,243.708z M273.637,329.22h-35.273v-35.273    h35.273V329.22z M273.637,277.913h-35.273v-18.171h35.273V277.913z" data-original="#000000" class="active-path" data-old_color="#773737" fill="#0F00FF"/>
	</g>
</g><g>
	<g>
		<path d="M367.165,243.708h-51.307c-4.427,0-8.017,3.589-8.017,8.017v85.511c0,4.427,3.589,8.017,8.017,8.017h51.307    c4.427,0,8.017-3.589,8.017-8.017v-85.511C375.182,247.297,371.592,243.708,367.165,243.708z M359.148,329.22h-35.273v-35.273    h35.273V329.22z M359.148,277.913h-35.273v-18.171h35.273V277.913z" data-original="#000000" class="active-path" data-old_color="#773737" fill="#0F00FF"/>
	</g>
</g><g>
	<g>
		<path d="M452.676,243.708H401.37c-4.427,0-8.017,3.589-8.017,8.017v85.511c0,4.427,3.589,8.017,8.017,8.017h51.307    c4.427,0,8.017-3.589,8.017-8.017v-85.511C460.693,247.297,457.104,243.708,452.676,243.708z M444.66,329.22h-35.273v-35.273    h35.273V329.22z M444.66,277.913h-35.273v-18.171h35.273V277.913z" data-original="#000000" class="active-path" data-old_color="#773737" fill="#0F00FF"/>
	</g>
</g><g>
	<g>
		<path d="M358.614,141.094h-34.205c-4.427,0-8.017,3.589-8.017,8.017v34.205c0,4.427,3.589,8.017,8.017,8.017h34.205    c4.427,0,8.017-3.589,8.017-8.017v-34.205C366.63,144.684,363.041,141.094,358.614,141.094z M350.597,175.299h-18.171v-18.171    h18.171V175.299z" data-original="#000000" class="active-path" data-old_color="#773737" fill="#0F00FF"/>
	</g>
</g></g> </svg>
